<svg width="46" height="46" viewBox="0 0 46 46" fill="none" xmlns="http://www.w3.org/2000/svg">
<path d="M31.1126 14.1421C31.3001 14.3297 31.4055 14.584 31.4055 14.8492C31.4055 15.1145 31.3001 15.3688 31.1126 15.5563L24.0415 22.6274L31.1126 29.6985C31.3001 29.886 31.4055 30.1404 31.4055 30.4056C31.4055 30.6708 31.3001 30.9252 31.1126 31.1127C30.925 31.3002 30.6707 31.4056 30.4055 31.4056C30.1403 31.4056 29.8859 31.3002 29.6984 31.1127L22.6273 24.0416L15.5562 31.1127C15.3687 31.3002 15.1143 31.4056 14.8491 31.4056C14.5839 31.4056 14.3296 31.3002 14.142 31.1127C13.9545 30.9252 13.8491 30.6708 13.8491 30.4056C13.8491 30.1404 13.9545 29.886 14.142 29.6985L21.2131 22.6274L14.142 15.5563C13.9545 15.3688 13.8491 15.1145 13.8491 14.8492C13.8491 14.584 13.9545 14.3297 14.142 14.1421C14.3296 13.9546 14.5839 13.8492 14.8491 13.8492C15.1143 13.8492 15.3687 13.9546 15.5562 14.1421L22.6273 21.2132L29.6984 14.1421C29.8859 13.9546 30.1403 13.8492 30.4055 13.8492C30.6707 13.8492 30.925 13.9546 31.1126 14.1421Z" fill="#343434"/>
</svg>
